<svg width="1815" height="460" viewBox="0 0 1815 460" xmlns="http://www.w3.org/2000/svg">
<path d="M726.867 315.133C740.6 306.6 739.4 286.2 724.467 279.133C717.133 275.533 709.667 275.533 702.333 279.267C693.667 283.666 689.933 289.8 690.6 298.733C691 302.866 692.333 307.267 693.933 309.4C700.333 318.333 717 321.133 726.867 315.133Z" fill="currentcolor"/>
<path d="M1167.53 278.866C1174.6 282.466 1177.53 287.533 1177.53 295.666C1177.53 304.066 1173.53 310.2 1165.8 313.8C1158.6 316.999 1152.47 316.999 1145.53 313.533C1137.93 309.933 1134.33 303.933 1134.33 295.267C1134.33 287.533 1138.47 281.267 1145.67 278.2C1151.67 275.533 1161.67 275.933 1167.53 278.866Z" fill="currentcolor"/>
<path fill-rule="evenodd" clip-rule="evenodd" d="M947.667 2.33292C984.333 6.19962 1011.67 11.6664 1052.47 23.5326C1120.6 43.1327 1185.8 71.1327 1251.4 108.866C1261.13 114.466 1271.67 119.666 1274.73 120.466C1279.67 121.666 1286.07 120.733 1329.67 111.933C1531.67 70.8661 1625.8 54.8661 1759.67 38.8661C1777 36.7328 1797.53 37.7997 1804.2 40.9994C1811.27 44.3329 1814.33 49.933 1814.33 58.9994C1814.2 72.9994 1810.33 78.0663 1788.2 92.1996C1775.93 100.066 1761.53 112.866 1742.6 132.733C1713 163.533 1687.67 199.266 1660.87 247.8C1636.47 292.066 1615.67 321.933 1585.53 356.333C1565.67 378.999 1554.07 388.999 1533.67 400.733C1517.4 410.066 1433.53 448.333 1429.27 448.333C1426.73 448.333 1422.6 445.933 1416.33 440.999C1397.27 425.8 1387.93 424.866 1370.33 436.066C1358.87 443.399 1357 443.533 1348.73 438.066C1337.13 430.333 1328.87 426.999 1321.93 426.999C1313.93 426.999 1309 429.533 1299.67 438.333C1293.17 444.468 1290.23 447.243 1287.58 446.985C1285.4 446.772 1283.42 444.494 1279.8 440.333C1267.53 426.2 1252.47 421.8 1238.87 428.333C1233.8 430.866 1231.4 433.399 1225.67 442.333C1219.8 451.399 1217.4 453.933 1212.07 456.466L1205.67 459.666H904.867C650.867 459.666 603.667 459.399 601.8 457.8C600.6 456.866 597.8 452.6 595.533 448.333C587.267 432.866 578.467 425.666 567.667 425.666C560.067 425.666 552.2 430.066 544.067 438.733L537.133 446.066L526.067 439.399C509.533 429.266 504.333 426.999 498.2 426.999C493.267 426.999 491.8 427.8 483.133 436.2C470.2 448.866 468.867 448.866 456.467 437.666C445.933 428.2 441.4 425.666 434.733 425.666C426.733 425.8 420.733 430.066 411.133 442.733C407.533 447.399 403.267 451.666 401.533 452.333C398.2 453.666 395.933 453.133 363.667 444.2C285.4 422.333 263.8 414.466 239.667 398.733C213.4 381.8 199.4 368.333 155.4 317.933C89.9333 242.999 49.2667 197.8 27.6666 175.666C15.5333 163.133 4.46663 150.866 3.26668 148.066C-1.26664 138.6 0.999959 129.933 8.99996 125.533C13.9333 122.866 92.2 122.333 186.333 124.333C228.467 125.133 317 126.466 383 126.999C488.733 128.066 505.933 128.466 527.533 130.866C548.6 133.133 552.733 133.266 556.467 131.666C558.733 130.733 568.2 124.6 577.267 118.066C664.867 55.266 769.667 11.933 857 2.46622C879.533 -0.0669841 925.4 -0.0669841 947.667 2.33292ZM840.2 51.5331C849 52.0663 865 51.7997 875.667 51.2665C928.067 48.0663 988.467 51.3998 974.6 56.4662C973.133 56.9994 962.067 57.933 950.067 58.3329C925.667 59.3998 921 60.1996 909.933 65.7997C905.667 67.933 901.533 69.6664 900.6 69.6664C899.667 69.6664 896.333 67.7997 893 65.5331L887 61.3998L859 62.3329C851.033 62.6098 842.814 62.9233 836.139 63.1767L834.905 63.225L834.847 63.2279L834.726 63.2323L834.068 63.2572C828.889 63.456 824.871 63.6098 823 63.6664C812.733 64.3329 810.6 63.1327 812.733 58.3329C815.533 52.3329 821.8 50.7328 840.2 51.5331ZM1695 92.4662C1684.07 95.3998 1655.53 103.666 1631.67 111C1617.73 115.205 1599.14 120.867 1581.72 126.177L1581.03 126.386L1580.51 126.544C1568.54 130.191 1557.19 133.651 1548.33 136.333C1444.2 168.066 1399.4 182.333 1389.53 187.133C1373.53 194.733 1359.4 204.733 1346.87 217.267C1329.27 234.867 1308.47 267 1306.87 279.4C1306.47 282.466 1307.27 295.533 1308.73 308.333C1310.6 323.933 1311.8 344.6 1312.33 371C1313 402.733 1313.53 410.733 1315 412.333C1316.73 413.933 1318.33 413.8 1327.27 411.267C1333 409.533 1341.8 405.8 1346.73 403C1370.2 389.533 1384.33 387 1422.47 389.666C1462.2 392.466 1477.4 389.533 1512.33 372.333C1534.07 361.666 1553 347.933 1570.73 330.2C1593.4 307.533 1605.27 291 1626.73 251.8C1677.93 157.933 1697.4 123.933 1710.6 105.533C1712.13 103.364 1713.79 101.048 1715.34 98.8935C1717.69 95.6176 1719.77 92.7143 1720.73 91.2665L1723.8 86.9999L1719.4 87.1332C1717 87.1332 1706.07 89.5331 1695 92.4662ZM792.333 114.6C818.867 108.999 839.133 106.066 862.333 104.466C895.4 101.933 941 104.2 975.667 109.8C1000.2 113.8 1031 124.333 1027.53 127.533C1027.27 127.8 1020.2 126.999 1011.8 125.533C973.4 119.4 957 118.333 905 118.466C848.6 118.466 817.933 121.133 762.067 130.466C757.667 131.267 757 130.999 757 128.866C757 124.066 768.2 119.533 792.333 114.6ZM73.6666 170.733C75 172.733 87.9333 189.933 102.333 208.999C139 257.4 146.6 267.666 162.333 289.666C179.933 314.466 189.533 326.066 203.8 340.466C224.067 360.6 245 375.666 271.533 388.866C314.2 410.333 345.267 419 379 419C396.6 419 403.533 418.066 427 412.333C443.4 408.466 453.267 407.933 469.667 410.333C477.8 411.4 490.467 412.733 497.8 413.267C511.133 414.066 511.4 413.933 513.533 410.866C515.533 407.8 515.4 406.2 511.533 387.666C506.6 363.666 506.733 349.533 512.333 331.133C514.2 324.866 515.667 317.933 515.667 315.666C515.667 297.4 487.133 258.2 457.8 236.066C438.067 221.133 420.6 214.066 391.4 209.133C341.8 200.6 319.133 198.6 248.333 196.333C181.933 194.333 166.467 193.533 155.267 191.666C149.533 190.6 130.333 185.133 112.6 179.267C94.8667 173.4 78.3333 168.2 75.8 167.8L71.4 166.999L73.6666 170.733ZM625.267 233C641.933 215.533 658.733 205.533 679 200.866C691 198.066 708.6 199.267 722.333 203.666C737 208.333 753.133 215.933 764.6 223.267C775.267 230.2 789.933 243.4 791 247.133C791.173 247.711 791.397 248.489 791.627 249.304C791.928 250.371 792.24 251.502 792.467 252.333C793.933 257.8 785.933 255.4 768.067 245.267C709.933 211.933 696.6 209 665.667 223.533C659.133 226.6 647.933 232.733 641 237.133C623 248.466 613.133 253.666 612.333 252.333C610.733 249.8 614.733 243.8 625.267 233ZM1086.33 214.999C1067.67 218.999 1052.2 225.666 1039 235.533C1032.47 240.333 1015.67 256.6 1015.67 257.933C1015.67 260.333 1021.8 258.466 1040.47 250.333C1094.33 226.6 1115.8 225.666 1193.67 243.533C1210.6 247.533 1213 247.666 1213 245.133C1213 242.466 1180.6 226.733 1163.67 221.133C1136.87 212.2 1109.4 210.066 1086.33 214.999ZM616.333 285.933C632.067 271.533 657.667 259.666 679.667 256.6C703.4 253.133 726.733 256.866 748.333 267.533C767.933 277.267 782.733 291.4 794.467 311.933C808.867 337.267 818.333 381.4 811 389.666C805.533 395.933 777.533 406.733 754.2 411.8C738.733 415.133 704.6 415.267 689.667 411.933C673 408.333 647 399.4 631.8 392.2C601.267 377.8 585.133 360.866 585 343.666C585 329.666 601.267 299.666 616.333 285.933ZM1108.33 257.8C1085.4 260.733 1062.07 268.466 1047.93 277.8C1017.8 297.533 999.133 328.999 997.4 362.333C996.6 378.866 997.667 380.866 1012.6 391.267C1036.07 407.933 1063.4 415.133 1103 415.4C1147.4 415.533 1184.33 401.933 1215.93 373.666C1227.8 362.999 1231 356.999 1230.73 345.666C1230.6 334.866 1224.33 314.999 1217.4 302.999C1211.13 292.466 1196.2 277.267 1185.93 271.133C1165.27 258.999 1137.27 254.2 1108.33 257.8ZM920.867 400.2C929.8 397.267 938.067 392.466 941 388.333C944.6 383.267 946.467 383.666 948.6 390.2C950.067 394.2 949.933 395.933 948.467 399.533C946.067 405.267 945.8 405.4 928.333 410.466L913.667 414.733L907 412.066C903.4 410.6 895.533 409.133 889.667 408.733C875.933 407.8 871.667 405.666 871.667 399.933C871.667 393.4 873.267 385.666 874.467 385.666C875 385.666 876.333 386.6 877.267 387.8C883 394.866 885.133 396.333 889.533 396.333C892.067 396.333 896.333 397.666 899 399.133C904.333 402.333 913 402.733 920.867 400.2Z" fill="currentcolor"/>
<path d="M446.2 442.866C452.6 446.2 454.333 448.333 455.267 454.2L456.067 458.999H415.667V455.133C415.667 443.666 433.533 436.466 446.2 442.866Z" fill="currentcolor"/>
<path d="M512.6 443.133C518.467 445.933 522.333 451.133 522.333 456.333C522.333 458.866 521.667 458.999 502.2 458.999H482.067L483 454.733C484.467 448.066 486.467 445.533 492.333 442.866C499.4 439.666 505.533 439.666 512.6 443.133Z" fill="currentcolor"/>
<path d="M574.467 441.666C580.6 443.399 584.867 448.066 585.933 454.2L586.733 458.999H546.6L547.533 454.6C549.133 448.066 551.8 444.6 557 442.466C562.6 440.066 567.933 439.933 574.467 441.666Z" fill="currentcolor"/>
<path d="M1264.73 442.866C1270.07 445.533 1273 450.2 1273 455.666V458.999H1253.67C1232.07 458.999 1231.8 458.866 1236.73 449.8C1241.53 440.866 1254.6 437.666 1264.73 442.866Z" fill="currentcolor"/>
<path d="M1331.13 442.866C1337.53 445.8 1341 450.066 1341 455.266V458.999H1320.87C1303 458.999 1300.87 458.733 1301.53 456.866C1301.93 455.666 1302.33 453.933 1302.33 452.999C1302.33 452.066 1303.93 449.399 1305.8 447.133C1311.4 440.333 1321.8 438.6 1331.13 442.866Z" fill="currentcolor"/>
<path d="M1397.4 442.2C1403 444.6 1406.33 448.466 1407.67 454.2L1408.73 458.999H1368.6L1369.4 454.2C1369.8 451.533 1371.27 448.066 1372.6 446.6C1377.93 440.733 1389.13 438.6 1397.4 442.2Z" fill="currentcolor"/>
</svg>
